/* XPM */
static char *_20f8541abae485acbdb9a79e0fa4339[] = {
/* columns rows colors chars-per-pixel */
"16 16 103 2 ",
"   c #009400",
".  c #009500",
"X  c #119D11",
"o  c #129D12",
"O  c #129E12",
"+  c #139E13",
"@  c #149E14",
"#  c #159F15",
"$  c #169F16",
"%  c #1FA31F",
"&  c #229522",
"*  c #239523",
"=  c #349134",
"-  c #329B32",
";  c #339B33",
":  c #389438",
">  c #20A320",
",  c #21A421",
"<  c #39AD39",
"1  c #3AAE3A",
"2  c #3BAE3B",
"3  c #3CAF3C",
"4  c #479947",
"5  c #489A48",
"6  c #4FB750",
"7  c #50B750",
"8  c #51B751",
"9  c #52B852",
"0  c #64BF64",
"q  c #65BF65",
"w  c #65C065",
"e  c #66C066",
"r  c #67C167",
"t  c #869A86",
"y  c #899D89",
"u  c #9EC59E",
"i  c #9FC69F",
"p  c #9ED79E",
"a  c #9FD79F",
"s  c #9FD89F",
"d  c #A0D8A0",
"f  c #A1D9A1",
"g  c #B7DFB7",
"h  c #B8E0B8",
"j  c #BAE3BB",
"k  c #BBE3BB",
"l  c #BCE3BC",
"z  c #BCE4BC",
"x  c #C1C0C1",
"c  c #C1C1C1",
"v  c gray76",
"b  c #CECDCE",
"n  c #D0CFD0",
"m  c #D1D3D1",
"M  c #D2D2D2",
"N  c LightGray",
"B  c #D3D4D3",
"V  c #D5D5D5",
"C  c gray86",
"Z  c #DDDDDD",
"A  c #DEDDDE",
"S  c gray87",
"D  c #DFDFDF",
"F  c #DFE3DF",
"G  c #DCEADC",
"H  c #DDEADD",
"J  c #E2DFE2",
"K  c gray88",
"L  c #E1E1E1",
"P  c #E0E3E0",
"I  c #E6E5E6",
"U  c #E6E6E6",
"Y  c #E2EAE2",
"T  c gray91",
"R  c gray92",
"E  c #EEEDEE",
"W  c #EEEEEE",
"Q  c #EFEEEF",
"!  c #EFEFEF",
"~  c #E8F5E8",
"^  c #E8F6E8",
"/  c #E8F6E9",
"(  c #E9F6E9",
")  c #EEF2EE",
"_  c gray95",
"`  c #F3F2F3",
"'  c #F0F5F0",
"]  c #F4F3F4",
"[  c #F6F6F6",
"{  c #F6FCF6",
"}  c #F7FCF7",
"|  c #F9F9F9",
" . c gray98",
".. c #F8FDF8",
"X. c #F9FDF9",
"o. c #FAFDFA",
"O. c gray99",
"+. c #FDFDFD",
"@. c #FEFDFE",
"#. c #FEFEFE",
"$. c #FFFEFF",
"%. c gray100",
"&. c None",
/* pixels */
"&.&.&.&.&.@ < 7 7 < @ &.&.&.&.&.",
"&.&.&.X 0 j ~ { } ~ j 0 X &.&.&.",
"&.&.% p X.%.%.! W %.%.X.a , &.&.",
"&.X p %.%.%.K Z K Z %.%.%.d X &.",
"&.0 X.%.%.R Z %.%.K R %.%.X.0 &.",
"@ j %.%.U V Z %.%.Z M U %.%.z @ ",
"< ~ %._ K %.Z U R C %.Z _ %.~ 3 ",
"6 { W M K %.%.x x  .%.K M W X.7 ",
"7 ' Z  .Z ! _ x x ] ) Z  .Z ' 7 ",
"< H U %. .n t 5 5 y b  .%.U H 3 ",
"@ j K |  .V :     = m  .[ J j @ ",
"&.0 ) Z Z K ;     - F Z Z _ r &.",
"&.X d %.%.%.u & & u %.%.%.d @ &.",
"&.&., p X.%.%.Y Y %.%.X.d , &.&.",
"&.&.&.X r z ~ X.X.~ z r X &.&.&.",
"&.&.&.&.&.$ < 7 9 < $ &.&.&.&.&."
};
