/* XPM */
static char *eaf3fba6cec74d75b90f8ca9457a776b[] = {
/* columns rows colors chars-per-pixel */
"32 32 185 2 ",
"   c #467B46",
".  c #747574",
"X  c #008500",
"o  c #008700",
"O  c #078707",
"+  c #088808",
"@  c #009000",
"#  c #009100",
"$  c #009400",
"%  c #009500",
"&  c #009600",
"*  c #009700",
"=  c #0A9A0A",
"-  c #0B9A0B",
";  c #0B9B0B",
":  c #0C9B0C",
">  c #0E9C0E",
",  c #0F9C0F",
"<  c #118511",
"1  c #168216",
"2  c #188218",
"3  c #109C10",
"4  c #1EA21E",
"5  c #1FA31F",
"6  c #328932",
"7  c #348A34",
"8  c #3A893A",
"9  c #3B8A3B",
"0  c #20A320",
"q  c #21A421",
"w  c #25A525",
"e  c #27A627",
"r  c #29A729",
"t  c #2AA72A",
"y  c #2BA82B",
"u  c #2CA82D",
"i  c #2DA92D",
"p  c #30AA30",
"a  c #32AB32",
"s  c #34AC34",
"d  c #418E41",
"f  c #438E43",
"g  c #578D57",
"h  c #599459",
"j  c #5C965C",
"k  c #50B750",
"l  c #53B853",
"z  c #608F60",
"x  c #609060",
"c  c #739474",
"v  c #6CC36C",
"b  c #6DC36D",
"n  c #6EC36E",
"m  c #6FC46F",
"M  c #70C471",
"N  c #71C471",
"B  c #71C571",
"V  c #72C572",
"C  c #7DCA7D",
"Z  c gray52",
"A  c #888788",
"S  c gray56",
"D  c #929292",
"F  c #959595",
"G  c #979797",
"H  c #989898",
"J  c #84A384",
"K  c #9AAE9A",
"L  c #9BAE9B",
"P  c #A2A2A2",
"I  c #A9A9A9",
"U  c #AFAFAF",
"Y  c gray69",
"T  c #B1B1B1",
"R  c #B3B2B3",
"E  c gray71",
"W  c #B6B6B6",
"Q  c #B7B7B7",
"!  c gray72",
"~  c #B9B9B9",
"^  c gray73",
"/  c #BBBBBB",
"(  c #BCBCBC",
")  c gray74",
"_  c gray",
"`  c #81CB81",
"'  c #AEDEAE",
"]  c #B1C2B1",
"[  c #B3C3B3",
"{  c #BECABE",
"}  c #B0DEB0",
"|  c #B1DFB1",
" . c #B3E0B3",
".. c #BCE3BC",
"X. c #BDE4BD",
"o. c #BFE4BF",
"O. c #C1BFC1",
"+. c #BFE5C0",
"@. c #C0C0C0",
"#. c #C1C0C1",
"$. c #C1C1C1",
"%. c #C3C1C3",
"&. c gray76",
"*. c #C3C2C3",
"=. c #C3C3C3",
"-. c #C5C2C5",
";. c gray77",
":. c #C5C5C5",
">. c #C6C6C6",
",. c #C0CCC0",
"<. c #C9C7C9",
"1. c #C8C8C8",
"2. c #CACACA",
"3. c gray80",
"4. c #CDCDCD",
"5. c #CECECE",
"6. c gray81",
"7. c #CED5CE",
"8. c #CED6CE",
"9. c #D0D0D0",
"0. c gray82",
"q. c #D2D2D2",
"w. c LightGray",
"e. c gray83",
"r. c #D5D5D5",
"t. c gray84",
"y. c #D7D7D7",
"u. c #D8D8D8",
"i. c gray85",
"p. c #DADADA",
"a. c gainsboro",
"s. c #DDDDDD",
"d. c gray87",
"f. c #C0E5C0",
"g. c #CBEACB",
"h. c #CDEBCD",
"j. c #CFEBCF",
"k. c #D7EED7",
"l. c #D8EFD8",
"z. c #D9EFD9",
"x. c #DAF0DA",
"c. c gray88",
"v. c #E1E1E1",
"b. c #E2E2E2",
"n. c gray89",
"m. c gray90",
"M. c #E6E6E6",
"N. c #E7E7E7",
"B. c gray91",
"V. c #E9E9E9",
"C. c gray92",
"Z. c #EDECED",
"A. c gray93",
"S. c #EEEDEE",
"D. c #EEEEEE",
"F. c #EFEEEF",
"G. c #EFEFEF",
"H. c #E9F6E9",
"J. c #EAF6EA",
"K. c #EAF7EA",
"L. c #EBF7EB",
"P. c gray94",
"I. c #F1F1F1",
"U. c gray95",
"Y. c #F5F4F5",
"T. c gray96",
"R. c #F6F5F6",
"E. c #F6F6F6",
"W. c gray97",
"Q. c #F8F8F8",
"!. c #F9F9F9",
"~. c gray98",
"^. c #FBFBFB",
"/. c #FBFDFB",
"(. c #FCFAFC",
"). c #FCFAFD",
"_. c gray99",
"`. c #FDFDFD",
"'. c #FCFEFC",
"]. c #FDFEFD",
"[. c #FDFFFD",
"{. c #FEFEFE",
"}. c #FFFEFF",
"|. c gray100",
" X c None",
/* pixels */
" X X X X X X X X X X X X% $ $ $ $ $ $ $  X X X X X X X X X X X X",
" X X X X X X X X X% % = t k v C C v k u - $ %  X X X X X X X X X",
" X X X X X X X% % 4 v ..H./.|.|.|.|.|.H...m 4 $ %  X X X X X X X",
" X X X X X X% > v k.|.|.|.|.|.|.|.|.|.|.|.|.l.v > %  X X X X X X",
" X X X X X% w ' |.|.|.|.|.|.|.|.|.|.|.|.|.|.|.|.| w %  X X X X X",
" X X X X% p g.|.|.|.|.|.|.|.U.y.y.D.|.|.|.|.|.|.|.h.s %  X X X X",
" X X X% w g.|.|.|.|.|.|.|.q.Q 2.2.Q 2.|.|.|.|.|.|.|.h.w %  X X X",
" X X% > ' |.|.|.|.|.|.|.a.( ~.|.|.|.;.q.|.|.|.|.|.|.|.| 3 %  X X",
" X X% v |.|.|.|.|.|.|.~.^ U.|.|.|.|.~.^ W.|.|.|.|.|.|.|.v %  X X",
" X% 4 k.|.|.|.|.|.|.|.c.( |.|.|.|.|.|.&.y.|.|.|.|.|.|.|.l.q %  X",
" X% v |.|.|.|.|.|.N.( U Q |.|.|.|.|.|.&.I ( N.|.|.|.|.|.|.M %  X",
" X= ..|.|.|.|.|.V.( D.W.^ ~.|.|.|.|.|.( U.D.( N.|.|.|.|.|.f.-  X",
"% t H.|.|.|.|.|.&.D.|.|.2.5.|.|.|.|.i.&.|.|.D.&.|.|.|.|.|.H.y % ",
"$ k /.|.|.|.|.U.&.|.|.|.~.( >.V.V.5.Q W.|.|.|.>.U.|.|.|.|.|.k $ ",
"$ v |.|.|.~.i.T ^ |.|.|.|.~.i.D S y.~.|.|.|.|.( U y.^.|.|.|.M % ",
"$ C |.|.~.;.5.n.&.|.|.|.|.|.|.H F |.|.|.|.|.|.&.c.5.&.~.|.|.` $ ",
"% C |.|.q.q.|.|.>.N.|.|.|.|.D.D F D.|.|.|.|.N.>.|.|.y.5.|.|.` $ ",
"$ v |.~.&.~.|.|.D./ c.~.|.N.&.O.;.O.N.^.|.c.^ D.|.|.~.&.~.|.M $ ",
"$ k _.U.&.|.|.|.|.U.>.P A T L z z K ! H P >.D.|.|.|.|.&.U.|.k % ",
"$ u H.Y.&.|.|.|.|.|.|.<.Z   + $ @ O g . O.|.|.|.|.|.|.&.Y.L.i $ ",
" X= ..|.&.D.|.|.|.|.~.&.J X % % % % X c &.^.|.|.|.|.D.&.|.f.-  X",
" X% m |.N.O.W.|.|.|.5.<.f % % * * % % d <.5.|.|.|.W.&.N.|.M %  X",
" X% 4 l.|.a./ 2.4.( 5.D.7 % % * % * % 6 Z.9.( 4.2.^ a.|.x.q %  X",
" X X% v |.|.W.c.a.I.|.^.j $ * % * % $ h ^.|.I.a.c.W.|.|.M %  X X",
" X X% 3 | |.|.|.|.|.|.|.{ 2 % % % $ 1 { |.|.|.|.|.|.|. .3 %  X X",
" X X X% w h.|.|.|.|.|.|.|.] 8 < < 8 ] |.|.|.|.|.|.|.h.t %  X X X",
" X X X X% s h.|.|.|.|.|.|.|.D.8.8.D.|.|.|.|.|.|.|.h.s %  X X X X",
" X X X X X% w | |.|.|.|.|.|.|.|.|.|.|.|.|.|.|.|. .t %  X X X X X",
" X X X X X X% > M l.|.|.|.|.|.|.|.|.|.|.|.|.x.M 3 %  X X X X X X",
" X X X X X X X% % q M o.H.|.|.|.|.|.|.H.f.M q % %  X X X X X X X",
" X X X X X X X X X% % - y k m ` ` M l i - % %  X X X X X X X X X",
" X X X X X X X X X X X X$ % $ $ % $ $ %  X X X X X X X X X X X X"
};
