/* XPM */
static char *_bfbb250d3064bdcf17782f75f2ab2e8[] = {
/* columns rows colors chars-per-pixel */
"64 64 102 2 ",
"   c gray7",
".  c #0D330D",
"X  c #2D2D2D",
"o  c gray23",
"O  c #125F13",
"+  c #076507",
"@  c #026C03",
"#  c #0D630D",
"$  c #007400",
"%  c #007C00",
"&  c #156215",
"*  c #2E562E",
"=  c #2C5D2D",
"-  c #315E31",
";  c #2E612E",
":  c #306230",
">  c #3C643C",
",  c #424142",
"<  c #4E4E4E",
"1  c #455A45",
"2  c #525252",
"3  c #5B5B5B",
"4  c #426942",
"5  c #476D48",
"6  c #4D6C4D",
"7  c #557255",
"8  c #5C745D",
"9  c #626262",
"0  c #6A6A6A",
"q  c #6C7E6C",
"w  c #757575",
"e  c #7D7D7D",
"r  c #008400",
"t  c #008B00",
"y  c #009600",
"u  c #039803",
"i  c #0A9A0A",
"p  c #159F15",
"a  c #1BA11B",
"s  c #1FA320",
"d  c #23A423",
"f  c #29A729",
"g  c #2EA92E",
"h  c #37AD38",
"j  c #3CAF3C",
"k  c #3FB03F",
"l  c #42B142",
"z  c #47B348",
"x  c #4FB74F",
"c  c #51B751",
"v  c #56BA56",
"b  c #778777",
"n  c #7E8B7E",
"m  c #61BE61",
"M  c #67C067",
"N  c #6DC36D",
"B  c #75C775",
"V  c #7DC97D",
"C  c #7FCA80",
"Z  c #848484",
"A  c #838E83",
"S  c #8B8B8B",
"D  c #859085",
"F  c #939393",
"G  c #9C9C9C",
"H  c #9BA19C",
"J  c #A4A4A4",
"K  c #ABACAB",
"L  c #B3B3B3",
"P  c #BCBCBC",
"I  c #84CC84",
"U  c #87CE88",
"Y  c #89CF89",
"T  c #8ED08E",
"R  c #9DD79D",
"E  c #9FD8A0",
"W  c #A4DAA4",
"Q  c #ABDCAB",
"!  c #B4E0B4",
"~  c #BBE3BB",
"^  c #BFE5C0",
"/  c #C4C4C4",
"(  c #CCCCCC",
")  c #D4D4D4",
"_  c #D8D7D8",
"`  c #DBDBDB",
"'  c #C4E6C4",
"]  c #C7E8C7",
"[  c #CAE9CA",
"{  c #D4EDD4",
"}  c #DDF1DD",
"|  c #E4E4E4",
" . c #E9E7E9",
".. c #ECECEC",
"X. c #E4F4E4",
"o. c #E9F6EA",
"O. c #EEF8EE",
"+. c #F4F4F4",
"@. c #F4FAF4",
"#. c #F9F7F9",
"$. c #FFFFFF",
"%. c None",
/* pixels */
"%.%.%.%.%.%.%.%.%.%.%.%.%.%.%.%.%.%.%.%.%.%.%.%.%.%.y y y y y y y y y y y y %.%.%.%.%.%.%.%.%.%.%.%.%.%.%.%.%.%.%.%.%.%.%.%.%.%.",
"%.%.%.%.%.%.%.%.%.%.%.%.%.%.%.%.%.%.%.%.%.%.y y y y y y y y y y y y y y y y y y y y %.%.%.%.%.%.%.%.%.%.%.%.%.%.%.%.%.%.%.%.%.%.",
"%.%.%.%.%.%.%.%.%.%.%.%.%.%.%.%.%.%.%.%.y y y y y y y y i p a a d a p i y y y y y y y y %.%.%.%.%.%.%.%.%.%.%.%.%.%.%.%.%.%.%.%.",
"%.%.%.%.%.%.%.%.%.%.%.%.%.%.%.%.%.y y y y y y i d x V W ~ { } X.} } { ~ W I x d i y y y y y y %.%.%.%.%.%.%.%.%.%.%.%.%.%.%.%.%.",
"%.%.%.%.%.%.%.%.%.%.%.%.%.%.%.%.y y y y y f N ! X.#.$.$.$.$.$.$.$.$.$.$.$.$.#.X.! N f y y y y y %.%.%.%.%.%.%.%.%.%.%.%.%.%.%.%.",
"%.%.%.%.%.%.%.%.%.%.%.%.%.%.y y y y i k R X.$.$.$.$.$.$.$.$.$.$.$.$.$.$.$.$.$.$.$.$.X.W l i y y y y %.%.%.%.%.%.%.%.%.%.%.%.%.%.",
"%.%.%.%.%.%.%.%.%.%.%.%.%.y y y y h W O.$.$.$.$.$.$.$.$.$.$.$.$.$.$.$.$.$.$.$.$.$.$.$.$.O.Q j y y y y %.%.%.%.%.%.%.%.%.%.%.%.%.",
"%.%.%.%.%.%.%.%.%.%.%.y y y y p I o.$.$.$.$.$.$.$.$.$.$.$.$.$.$.$.$.$.$.$.$.$.$.$.$.$.$.$.$.o.U a y y y y %.%.%.%.%.%.%.%.%.%.%.",
"%.%.%.%.%.%.%.%.%.%.y y y y k ' $.$.$.$.$.$.$.$.$.$.$.$.$.$.$.$.$.$.$.$.$.$.$.$.$.$.$.$.$.$.$.$.' k y y y y %.%.%.%.%.%.%.%.%.%.",
"%.%.%.%.%.%.%.%.%.y y y y m X.$.$.$.$.$.$.$.$.$.$.$.$.$.$.$.$.$.$.$.$.$.$.$.$.$.$.$.$.$.$.$.$.$.$.o.M u y y y %.%.%.%.%.%.%.%.%.",
"%.%.%.%.%.%.%.%.y y y u V @.$.$.$.$.$.$.$.$.$.$.$.$.$.$.$.$.$.$.$.$.$.$.$.$.$.$.$.$.$.$.$.$.$.$.$.$.@.I i y y y %.%.%.%.%.%.%.%.",
"%.%.%.%.%.%.%.y y y i I #.$.$.$.$.$.$.$.$.$.$.$.$.$.$.$.$...( L K / | $.$.$.$.$.$.$.$.$.$.$.$.$.$.$.$.#.U i y y y %.%.%.%.%.%.%.",
"%.%.%.%.%.%.%.y u u V #.$.$.$.$.$.$.$.$.$.$.$.$.$.$.$.+.J w Z G G S w F | $.$.$.$.$.$.$.$.$.$.$.$.$.$.$.$.V i y y %.%.%.%.%.%.%.",
"%.%.%.%.%.%.y y y M @.$.$.$.$.$.$.$.$.$.$.$.$.$.$.$.| e G | $.$.$.$.+.K w ( $.$.$.$.$.$.$.$.$.$.$.$.$.$.$.@.m y y y %.%.%.%.%.%.",
"%.%.%.%.%.y y y j X.$.$.$.$.$.$.$.$.$.$.$.$.$.$.$...e L $.$.$.$.$.$.$.$.) w ` $.$.$.$.$.$.$.$.$.$.$.$.$.$.$.X.l y y y %.%.%.%.%.",
"%.%.%.%.%.y y p ' $.$.$.$.$.$.$.$.$.$.$.$.$.$.$.$.G J $.$.$.$.$.$.$.$.$.$./ e #.$.$.$.$.$.$.$.$.$.$.$.$.$.$.$.] a y y %.%.%.%.%.",
"%.%.%.%.y y y I $.$.$.$.$.$.$.$.$.$.$.$.$.$.$.$.` e #.$.$.$.$.$.$.$.$.$.$.$.F P $.$.$.$.$.$.$.$.$.$.$.$.$.$.$.$.Y y y y %.%.%.%.",
"%.%.%.y y y h o.$.$.$.$.$.$.$.$.$.$.$.$.$.$.$.$.J L $.$.$.$.$.$.$.$.$.$.$.$.) Z $.$.$.$.$.$.$.$.$.$.$.$.$.$.$.$.O.k y y y %.%.%.",
"%.%.%.y y i W $.$.$.$.$.$.$.$.$.$.$.$.$.$.$.$.$.Z ` $.$.$.$.$.$.$.$.$.$.$.$.#.n  .$.$.$.$.$.$.$.$.$.$.$.$.$.$.$.$.Q i y y %.%.%.",
"%.%.%.y y k O.$.$.$.$.$.$.$.$.$.$.$.$.$.$.$.$. .Z ..$.$.$.$.$.$.$.$.$.$.$.$.$.Z ( $.$.$.$.$.$.$.$.$.$.$.$.$.$.$.$.O.z y y %.%.%.",
"%.%.y y y R $.$.$.$.$.$.$.$.$.$.$.$.$.$. .K S 0 3 ..$.$.$.$.$.$.$.$.$.$.$.$.$.w 9 S J  .$.$.$.$.$.$.$.$.$.$.$.$.$.$.W i y y %.%.",
"%.%.y y f X.$.$.$.$.$.$.$.$.$.$.$.$.$.P e J ` | Z  .$.$.$.$.$.$.$.$.$.$.$.$.#.S ( ` J n P $.$.$.$.$.$.$.$.$.$.$.$.$.o.f y y %.%.",
"%.y y y N $.$.$.$.$.$.$.$.$.$.$.$.$.K S | $.$.$.F ( $.$.$.$.$.$.$.$.$.$.$.$. .Z +.$.$. .S J $.$.$.$.$.$.$.$.$.$.$.$.$.N y y y %.",
"%.y y i ! $.$.$.$.$.$.$.$.$.$.$.$./ S #.$.$.$.$.L G $.$.$.$.$.$.$.$.$.$.$.$./ F $.$.$.$.#.S / $.$.$.$.$.$.$.$.$.$.$.$.~ i y y %.",
"%.y y d X.$.$.$.$.$.$.$.$.$.$.$.+.Z | $.$.$.$.$...e | $.$.$.$.$.$.$.$.$.$.#.e ) $.$.$.$.$.| Z ..$.$.$.$.$.$.$.$.$.$.$.X.f y y %.",
"%.y y x #.$.$.$.$.$.$.$.$.$.$.$.P J $.$.$.$.$.$.$.P Z +.$.$.$.$.$.$.$.$.$.J F $.$.$.$.$.$.$.J P $.$.$.$.$.$.$.$.$.$.$.$.v y y %.",
"y y y V $.$.$.$.$.$.$.$.$.$.$.$.F _ $.$.$.$.$.$.$.$.G Z ..$.$.$.$.$.$.#.J Z +.$.$.$.$.$.$.$.` F $.$.$.$.$.$.$.$.$.$.$.$.U y y y ",
"y y y W $.$.$.$.$.$.$.$.$.$.$.#.S ..$.$.$.$.$.$.$.$.$.J w L | #.#. ./ e S ..$.$.$.$.$.$.$.$.+.Z #.$.$.$.$.$.$.$.$.$.$.$.Q y y y ",
"y y i ~ $.$.$.$.$.$.$.$.$.$. .( w +.$.$.$.$.$.$.$.$.$.$.` F w 3 3 w Z ( $.$.$.$.$.$.$.$.$.$.@.w / ..$.$.$.$.$.$.$.$.$.$.' i u y ",
"y y p { $.$.$.$.$.$.$.$._ F n e 9 +.$.$.$.$.$.$.$.$.$.$.$.$.#.3 2 +.$.$.$.$.$.$.$.$.$.$.$.$.#.0 e Z F ) $.$.$.$.$.$.$.$.{ p y y ",
"y y a } $.$.$.$.$.$.$.K Z / +.#.S  .$.$.$.$.$.$.$.$.$.$.$.$.$.2 < #.$.$.$.$.$.$.$.$.$.$.$.$. .S +.+./ Z J $.$.$.$.$.$.$.X.d y y ",
"y y d } $.$.$.$.$.$.J F +.$.$.$.H ( $.$.$.$.$.$.$.$.$.$.$.$.| o , ` $.$.$.$.$.$.$.$.$.$.$.$.( G $.$.$.#.G J $.$.$.$.$.$.X.d y y ",
"y y a X.$.$.$.$.$./ S #.$.$.$.$.) S $.$.$.$.$.$.$.$.$.$.$.$.J 3 0 J $.$.$.$.$.$.$.$.$.$.$.$.F ( $.$.$.$.#.F / $.$.$.$.$.X.d y y ",
"y y a } $.$.$.$.#.S | $.$.$.$.$.#.F / $.$.$.$.$.$.$.$.$.$.` S G J S _ $.$.$.$.$.$.$.$.$.$.( S #.$.$.$.$.$.| Z +.$.$.$.$.X.a y y ",
"y y p { $.$.$.$.( G $.$.$.$.$.$.$.| n ) $.$.$.$.$.$.$.$. .Z ) J K _ n | $.$.$.$.$.$.$.$.` e ` $.$.$.$.$.$.$.J / $.$.$.$.{ a y y ",
"y y i ~ $.$.$.$.J / $.$.$.$.$.$.$.$._ e P #.$.$.$.$.$.( e / $.J L $./ e ( $.$.$.$.$.#.P e ) $.$.$.$.$.$.$.$.( G $.$.$.$.' i y y ",
"y y y W $.$.$.$.S | $.$.$.$.$.$.$.$.$.| F Z J L P L Z S ` +._ e Z _ +.` S Z L P P J Z F | $.$.$.$.$.$.$.$.$.| S #.$.$.$.Q u y y ",
"y y y V $.$.$.$.Z ` $.$.$.$.$.$.$.$.$.$.$.` L <   e `  .H 4 O + + & > G | _ J X < L ` $.$.$.$.$.$.$.$.$.$.$.| Z $.$.$.$.U y y y ",
"%.y y x #.$.$.$.S | $.$.$.$.$.$.$.$.$.$.$.$.$.J 0 2 F 6 @ t y u u u t @ 6 ` L X F $.$.$.$.$.$.$.$.$.$.$.$.$.| S #.$.$.$.v y y %.",
"%.y y d X.$.$.$.G ( $.$.$.$.$.$.$.$.$.$.$.$.$.F ` K . % u y y y y y y y % * , G F $.$.$.$.$.$.$.$.$.$.$.$.$.) G $.$.$.o.f y y %.",
"%.y y i ! $.$.$./ J $.$.$.$.$.$.$.$.$.$.$.$. .S +.q $ y y y y u y y y y u $ 1 ..S  .$.$.$.$.$.$.$.$.$.$.$.$.J / $.$.$.~ i y y %.",
"%.y y y N $.$.$.+.Z | $.$.$.$.$.$.$.$.$.$.$.K L ( O y y y y y y y y y y y y # ( L J $.$.$.$.$.$.$.$.$.$.$...Z ..$.$.$.B y y y %.",
"%.%.y y f X.$.$.$.P F $.$.$.$.$.$.$.$.$.$.` Z +.D % u y y y y y y y y y y y % A +.Z ` $.$.$.$.$.$.$.$.$.$.G L $.$.$.o.f y y %.%.",
"%.%.y y u E $.$.$.#.G J #.$.$.$.$.$.$.$.| Z ( $.7 t y y y y y y u y y y y y t 6 #._ Z ` $.$.$.$.$.$.$.$.J F #.$.$.$.W i y y %.%.",
"%.%.%.y y l O.$.$.$.#.G S _ $.$.$.$.+.L e ( $.#.5 t y y y u y y y y y y y y y 4 #.$.( e L +.$.$.$.$.` S F #.$.$.$.@.z y y %.%.%.",
"%.%.%.y y i Q $.$.$.$.$./ S Z F F F e G | $.$.$.7 r u y y y y y y y u y y y t 6 #.$.$. .G n F S F Z Z / $.$.$.$.$.Q i y y %.%.%.",
"%.%.%.y y y j o.$.$.$.$.$.#.` / P ( ..$.$.$.$.$.n % u y y y y y y y y y y y % b $.$.$.$.$...( / / ` #.$.$.$.$.$.O.l y y y %.%.%.",
"%.%.%.%.y y y U $.$.$.$.$.$.$.$.$.$.$.$.$.$.$.$./ # u y y y y y y y y y y u # P $.$.$.$.$.$.$.$.$.$.$.$.$.$.$.$.T y y y %.%.%.%.",
"%.%.%.%.%.y y a ' $.$.$.$.$.$.$.$.$.$.$.$.$.$.$.#.8 % u y u y y y y y y y % 7 #.$.$.$.$.$.$.$.$.$.$.$.$.$.$.$.[ a y y %.%.%.%.%.",
"%.%.%.%.%.y y y k o.$.$.$.$.$.$.$.$.$.$.$.$.$.$.$._ - r u y y y y y y u r = ) $.$.$.$.$.$.$.$.$.$.$.$.$.$.$.o.z y y y %.%.%.%.%.",
"%.%.%.%.%.%.y y y m #.$.$.$.$.$.$.$.$.$.$.$.$.$.$.$.( > $ t u u u u y @ > ( $.$.$.$.$.$.$.$.$.$.$.$.$.$.$.#.N y y y %.%.%.%.%.%.",
"%.%.%.%.%.%.%.y y u I #.$.$.$.$.$.$.$.$.$.$.$.$.$.$.$.| D : + @ @ + ; n | $.$.$.$.$.$.$.$.$.$.$.$.$.$.$.#.U u y y %.%.%.%.%.%.%.",
"%.%.%.%.%.%.%.y y y i U #.$.$.$.$.$.$.$.$.$.$.$.$.$.$.$.$. ./ K K /  .$.$.$.$.$.$.$.$.$.$.$.$.$.$.$.$.$.T i y y y %.%.%.%.%.%.%.",
"%.%.%.%.%.%.%.%.y y y i I @.$.$.$.$.$.$.$.$.$.$.$.$.$.$.$.$.$.$.$.$.$.$.$.$.$.$.$.$.$.$.$.$.$.$.$.$.@.I i y y y %.%.%.%.%.%.%.%.",
"%.%.%.%.%.%.%.%.%.y y y i M o.$.$.$.$.$.$.$.$.$.$.$.$.$.$.$.$.$.$.$.$.$.$.$.$.$.$.$.$.$.$.$.$.$.$.o.N i y y y %.%.%.%.%.%.%.%.%.",
"%.%.%.%.%.%.%.%.%.%.y y y y l ] $.$.$.$.$.$.$.$.$.$.$.$.$.$.$.$.$.$.$.$.$.$.$.$.$.$.$.$.$.$.$.$.[ z y y y y %.%.%.%.%.%.%.%.%.%.",
"%.%.%.%.%.%.%.%.%.%.%.y y y y a Y O.$.$.$.$.$.$.$.$.$.$.$.$.$.$.$.$.$.$.$.$.$.$.$.$.$.$.$.$.O.T a y y y y %.%.%.%.%.%.%.%.%.%.%.",
"%.%.%.%.%.%.%.%.%.%.%.%.%.y y y y k Q O.$.$.$.$.$.$.$.$.$.$.$.$.$.$.$.$.$.$.$.$.$.$.$.$.@.Q l y y y y %.%.%.%.%.%.%.%.%.%.%.%.%.",
"%.%.%.%.%.%.%.%.%.%.%.%.%.%.y y y y i z W X.$.$.$.$.$.$.$.$.$.$.$.$.$.$.$.$.$.$.$.$.X.W z i y y y y %.%.%.%.%.%.%.%.%.%.%.%.%.%.",
"%.%.%.%.%.%.%.%.%.%.%.%.%.%.%.%.y y y y i f B ~ X.$.$.$.$.$.$.$.$.$.$.$.$.$.#.o.~ B g i y y y y %.%.%.%.%.%.%.%.%.%.%.%.%.%.%.%.",
"%.%.%.%.%.%.%.%.%.%.%.%.%.%.%.%.%.y y y y y y i f v I Q ' } X.X.X.X.{ [ Q U v f i y y y y y y %.%.%.%.%.%.%.%.%.%.%.%.%.%.%.%.%.",
"%.%.%.%.%.%.%.%.%.%.%.%.%.%.%.%.%.%.%.%.y y y y y y y y i p a d d d p i y y y y y y y y %.%.%.%.%.%.%.%.%.%.%.%.%.%.%.%.%.%.%.%.",
"%.%.%.%.%.%.%.%.%.%.%.%.%.%.%.%.%.%.%.%.%.%.y y y y y y y y y y y y y y y y y y y y %.%.%.%.%.%.%.%.%.%.%.%.%.%.%.%.%.%.%.%.%.%.",
"%.%.%.%.%.%.%.%.%.%.%.%.%.%.%.%.%.%.%.%.%.%.%.%.%.%.y y y y y y y y y y y y %.%.%.%.%.%.%.%.%.%.%.%.%.%.%.%.%.%.%.%.%.%.%.%.%.%."
};
